<?xml version="1.0" encoding="UTF-8" standalone="no"?>
<!-- Created with Inkscape (http://www.inkscape.org/) -->

<svg
   width="95.150223mm"
   height="59.165665mm"
   viewBox="0 0 95.150223 59.165665"
   version="1.1"
   id="svg5"
   inkscape:version="1.1.2 (0a00cf5339, 2022-02-04)"
   sodipodi:docname="socis.svg"
   xmlns:inkscape="http://www.inkscape.org/namespaces/inkscape"
   xmlns:sodipodi="http://sodipodi.sourceforge.net/DTD/sodipodi-0.dtd"
   xmlns="http://www.w3.org/2000/svg"
   xmlns:svg="http://www.w3.org/2000/svg">
  <sodipodi:namedview
     id="namedview7"
     pagecolor="#ffffff"
     bordercolor="#666666"
     borderopacity="1.0"
     inkscape:pageshadow="2"
     inkscape:pageopacity="0.0"
     inkscape:pagecheckerboard="0"
     inkscape:document-units="mm"
     showgrid="false"
     inkscape:zoom="1.5554293"
     inkscape:cx="62.683659"
     inkscape:cy="33.431285"
     inkscape:window-width="2048"
     inkscape:window-height="1104"
     inkscape:window-x="0"
     inkscape:window-y="20"
     inkscape:window-maximized="1"
     inkscape:current-layer="layer1" />
  <defs
     id="defs2">
    <rect
       x="477.65692"
       y="645.66571"
       width="107.91718"
       height="139.17793"
       id="rect64746" />
    <rect
       x="496.02402"
       y="670.93274"
       width="134.27289"
       height="181.66803"
       id="rect51936" />
  </defs>
  <g
     inkscape:label="Layer 1"
     inkscape:groupmode="layer"
     id="layer1"
     style="display:inline"
     transform="translate(-19.880523,-144.41719)">
    <text
       xml:space="preserve"
       transform="scale(0.26458333)"
       id="text51934"
       style="font-style:normal;font-weight:normal;font-size:40px;line-height:1.25;font-family:sans-serif;white-space:pre;shape-inside:url(#rect51936);fill:#000000;fill-opacity:1;stroke:none" />
    <text
       xml:space="preserve"
       transform="scale(0.26458333)"
       id="text64744"
       style="font-style:normal;font-weight:normal;font-size:40px;line-height:1.25;font-family:sans-serif;white-space:pre;shape-inside:url(#rect64746);fill:#000000;fill-opacity:1;stroke:none" />
    <g
       id="g153524">
      <path
         id="path7445"
         style="fill:#99223e;fill-opacity:1;stroke:none;stroke-width:0.264583px;stroke-linecap:butt;stroke-linejoin:miter;stroke-opacity:1"
         d="m 62.484177,165.91639 c -2.797434,-0.004 -6.120709,1.02429 -10.046933,3.7269 l 2.867525,3.61219 c 11.507774,-7.73941 13.914165,2.81167 15.45332,4.22351 0.0066,0.0176 0.01183,0.0344 0.0186,0.0522 -15.654207,14.61394 5.936208,36.5954 19.207615,19.66547 l -3.707267,-2.18798 c -9.9098,10.93053 -22.205701,-4.51704 -13.134084,-13.4245 4.08141,5.38347 11.739608,6.01621 13.565844,2.19973 1.826236,-3.81649 -1.445744,-10.92789 -11.772154,-8.25725 -0.0075,-0.0134 -0.01259,-0.0237 -0.02016,-0.0372 -1.568268,-2.80421 -5.283309,-9.56175 -12.432305,-9.57306 z m 16.508036,13.45964 c 2.407304,-5.2e-4 3.447259,0.75936 3.754808,1.82832 0.307549,1.06896 -3.801676,0.39469 -5.306652,-1.69551 0.0098,-0.002 0.01701,-0.003 0.02687,-0.004 0.562062,-0.089 1.068416,-0.12858 1.524973,-0.12868 z"
         sodipodi:nodetypes="sccccccczccsszccss" />
      <path
         style="fill:#c6202e;fill-opacity:1;stroke:none;stroke-width:0.264583px;stroke-linecap:butt;stroke-linejoin:miter;stroke-opacity:1"
         d="m 88.88109,175.25631 4.249968,0.0212 -0.09751,18.74308 -4.13625,0.026 z"
         id="path9889" />
      <path
         id="path9957"
         style="fill:#d6554d;fill-opacity:1;stroke:none;stroke-width:0.264583px;stroke-linecap:butt;stroke-linejoin:miter;stroke-opacity:1"
         d="m 104.79369,174.95615 c -2.79231,-0.0145 -5.42752,0.51785 -6.843481,1.59267 -3.23647,2.45673 -4.187985,6.13345 -2.187968,9.68726 1.774321,2.97852 5.913169,3.7075 8.726339,4.46282 2.65764,0.71294 4.10255,1.07435 5.46862,2.7078 1.36608,1.63346 0.23925,4.29405 -1.95587,4.94462 -2.19511,0.65058 -7.37419,0.53709 -11.732142,-2.76387 l -2.834452,3.43131 c 5.888514,4.91805 13.315184,5.3312 17.653144,2.84893 4.33796,-2.48228 4.10269,-6.39732 3.79719,-8.3566 -0.56384,-3.61612 -3.84976,-5.43693 -6.44922,-6.39341 -2.4258,-0.86724 -6.05889,-1.13275 -7.8884,-2.47737 -2.268544,-1.66729 -1.429687,-3.47736 0.5979,-4.68188 2.06262,-1.22533 8.78429,-0.22788 10.21539,1.35082 l 2.72593,-3.57395 c -1.8527,-1.83742 -5.70285,-2.76046 -9.29298,-2.77915 z"
         sodipodi:nodetypes="sscczzccsscssccs" />
      <path
         id="path68010"
         style="fill:#2f2f63;fill-opacity:1;stroke:none;stroke-width:0.264583px;stroke-linecap:butt;stroke-linejoin:miter;stroke-opacity:1"
         d="m 31.239467,174.95615 c -2.792305,-0.0145 -5.42751,0.51785 -6.843471,1.59267 -3.23647,2.45673 -4.187985,6.13345 -2.187968,9.68726 1.774321,2.97852 5.913167,3.7075 8.726329,4.46282 2.657625,0.71294 4.102529,1.07435 5.46859,2.7078 1.366074,1.63346 0.23925,4.29405 -1.955858,4.94462 -2.195098,0.65058 -7.374158,0.53709 -11.732114,-2.76387 l -2.834452,3.43131 c 5.888514,4.91805 13.315162,5.3312 17.653098,2.84893 4.337936,-2.48228 4.102666,-6.39732 3.797169,-8.3566 -0.563837,-3.61612 -3.849739,-5.43693 -6.449184,-6.39341 -2.425785,-0.86724 -6.058857,-1.13275 -7.888365,-2.47737 -2.268548,-1.66729 -1.429691,-3.47736 0.597897,-4.68188 2.062618,-1.22533 8.784249,-0.22788 10.215343,1.35082 l 2.725912,-3.57395 c -1.852688,-1.83742 -5.702817,-2.76046 -9.292926,-2.77915 z"
         sodipodi:nodetypes="sscczzccsscssccs" />
      <path
         id="path68045"
         style="fill:#612a51;fill-opacity:1;stroke:none;stroke-width:0.216091px;stroke-linecap:butt;stroke-linejoin:miter;stroke-opacity:1"
         d="m 53.120453,180.58368 c -2.151163,0.002 -4.422533,0.55531 -6.31771,2.06046 -2.690741,2.44432 -4.32056,6.2677 -4.484315,9.18008 -0.150108,3.99087 2.000248,8.30473 5.18239,10.18456 2.614942,1.54477 8.489638,2.80254 12.450557,-0.52926 2.783168,-2.3411 4.351318,-6.26497 4.483887,-9.18049 0.181406,-3.98957 -2.000245,-8.3043 -5.182386,-10.18414 -1.392186,-0.82243 -3.683115,-1.53292 -6.132427,-1.53122 -4e-6,0 2.215077,-0.002 4e-6,10e-6 z m 3.54014,4.24541 c 2.501426,1.13228 3.62401,2.95354 3.799779,5.4483 0.286565,4.06732 -0.463735,6.16737 -2.657244,8.25831 -2.193508,2.09094 -5.613382,1.58134 -7.801647,0.57864 -2.188265,-1.00272 -3.299167,-2.80122 -3.708154,-5.26849 -0.408989,-2.46728 0.421394,-5.87774 2.423004,-7.99537 2.21267,-2.19188 5.442837,-2.15367 7.944262,-1.02139 z"
         sodipodi:nodetypes="sccsssssszszzscz" />
    </g>
    <g
       id="g153530"
       transform="translate(2.385213,1.5875)"
       style="fill:#0064e0">
      <g
         aria-label="КИС"
         id="text121280"
         style="font-size:19.7556px;line-height:1.25;letter-spacing:5.36575px;fill:#0064e0;stroke-width:0.264583"
         transform="translate(-0.07578018,8.3012468)">
        <path
           d="m 49.181588,148.55492 q 0.296334,0.31609 0.296334,0.69144 0,0.3556 -0.296334,0.65194 -0.276578,0.27658 -0.711201,0.27658 -0.237067,0 -0.454379,-0.079 -0.197556,-0.0988 -0.335845,-0.25682 l -5.669857,-6.59837 h -2.11385 v 5.88717 q 0,0.43462 -0.296334,0.73096 -0.276578,0.29633 -0.730957,0.29633 -0.434623,0 -0.730957,-0.29633 -0.296334,-0.29634 -0.296334,-0.73096 v -13.37454 q 0,-0.45438 0.296334,-0.73096 0.296334,-0.29633 0.730957,-0.29633 0.454379,0 0.730957,0.29633 0.296334,0.27658 0.296334,0.73096 v 5.66986 h 2.034827 l 5.314257,-6.36131 q 0.296334,-0.3556 0.730957,-0.3556 0.434623,0 0.711201,0.31609 0.256823,0.27658 0.256823,0.63218 0,0.3556 -0.276578,0.69145 l -4.998167,5.80814 z"
           style="font-weight:bold;font-family:Comfortaa;-inkscape-font-specification:'Comfortaa Bold';fill:#0064e0"
           id="path153357" />
        <path
           d="m 69.976442,150.15512 q -0.434623,0 -0.730957,-0.29633 -0.296334,-0.29634 -0.296334,-0.73096 v -11.18167 l -9.443177,11.85336 q -0.138289,0.15804 -0.355601,0.25682 -0.217311,0.0988 -0.434623,0.0988 -0.454379,0 -0.770468,-0.29633 -0.296334,-0.29634 -0.296334,-0.73096 v -13.37454 q 0,-0.43462 0.296334,-0.73096 0.316089,-0.29633 0.770468,-0.29633 0.434623,0 0.711202,0.29633 0.276578,0.27658 0.276578,0.73096 v 11.20142 l 9.482688,-11.85336 q 0.138289,-0.15804 0.355601,-0.25682 0.217311,-0.11853 0.434623,-0.11853 0.454379,0 0.730957,0.29633 0.296334,0.27658 0.296334,0.73096 v 13.37454 q 0,0.43462 -0.296334,0.73096 -0.276578,0.29633 -0.730957,0.29633 z"
           style="font-weight:bold;font-family:Comfortaa;-inkscape-font-specification:'Comfortaa Bold';fill:#0064e0"
           id="path153359" />
        <path
           d="m 87.235052,150.35268 q -2.113849,0 -3.872098,-1.04705 -1.738493,-1.04705 -2.746028,-2.86456 -1.007536,-1.81752 -1.007536,-4.01039 0,-2.17311 1.007536,-3.97087 1.007535,-1.81752 2.746028,-2.86457 1.758249,-1.0668 3.872098,-1.0668 1.501425,0 2.587983,0.39511 1.106314,0.39512 2.232383,1.30387 0.237067,0.1778 0.31609,0.37536 0.07902,0.1778 0.07902,0.43462 0,0.39511 -0.296334,0.65194 -0.276578,0.25682 -0.651935,0.25682 -0.375356,0 -0.691446,-0.25682 -0.809979,-0.69145 -1.580448,-0.98778 -0.770468,-0.31609 -1.995315,-0.31609 -1.540937,0 -2.844807,0.80998 -1.284114,0.80998 -2.054582,2.21262 -0.750713,1.3829 -0.750713,3.02261 0,1.65947 0.750713,3.04236 0.770468,1.3829 2.054582,2.19288 1.30387,0.80997 2.844807,0.80997 1.896537,0 3.63503,-1.30386 0.335845,-0.23707 0.651935,-0.23707 0.375356,0 0.612424,0.27658 0.256822,0.25682 0.256822,0.69144 0,0.41487 -0.316089,0.73096 -2.133605,1.71874 -4.840122,1.71874 z"
           style="font-weight:bold;font-family:Comfortaa;-inkscape-font-specification:'Comfortaa Bold';fill:#0064e0"
           id="path153361" />
      </g>
    </g>
  </g>
  <g
     inkscape:groupmode="layer"
     id="layer2"
     inkscape:label="Layer 2"
     style="display:inline"
     transform="translate(-19.880523,-144.41719)" />
</svg>
